<svg version="1.1" id="Layer_1" xmlns="http://www.w3.org/2000/svg" xmlns:xlink="http://www.w3.org/1999/xlink" x="0px" y="0px"
	 width="100%" viewBox="0 0 688 1024" enable-background="new 0 0 688 1024" xml:space="preserve">
<path fill="#000000" opacity="1.000000" stroke="none" 
	d="
M237.060760,564.994995 
	C219.522278,551.778870 210.817017,534.164490 210.218079,512.887085 
	C209.718536,495.140259 216.248322,479.390961 226.647003,465.153076 
	C233.375595,455.940247 241.991241,448.540710 249.954346,440.510925 
	C259.801910,430.580963 269.720001,420.719482 279.465393,410.690216 
	C285.172516,404.816772 291.327271,399.477203 297.817596,394.531219 
	C329.795532,370.162048 375.272736,375.430786 396.107605,416.883148 
	C399.918579,424.465424 399.969116,424.396942 393.979889,430.295013 
	C377.842255,446.187103 361.734528,462.109589 345.601105,478.005981 
	C344.657379,478.935852 343.655426,479.835632 342.564758,480.579681 
	C341.364227,481.398773 340.060760,481.437469 338.904633,480.370087 
	C337.773987,479.326141 337.508362,477.991913 338.299042,476.756775 
	C339.365540,475.090759 340.668182,473.571289 341.917297,472.027649 
	C345.441620,467.672333 346.018463,461.137634 343.151947,457.723389 
	C338.972992,452.746002 332.881287,452.942719 327.527679,458.379944 
	C318.885345,467.157349 310.326721,476.017090 301.720001,484.829620 
	C299.047485,487.566040 296.250336,490.185455 293.662109,492.998199 
	C291.043732,495.843719 289.543121,499.016754 291.422119,502.987762 
	C293.288940,506.933197 296.595520,508.566772 300.650330,508.684937 
	C305.308350,508.820648 309.929260,509.221954 314.568207,509.615143 
	C334.642365,511.316620 340.045532,525.493347 330.822968,541.693787 
	C326.135834,549.927185 318.274200,555.407043 311.706451,561.971191 
	C291.926941,581.739807 272.455841,601.865784 250.043030,618.779968 
	C246.593140,621.383484 243.143387,624.028137 239.456970,626.263611 
	C236.728455,627.918152 233.560120,629.043396 230.720978,626.247986 
	C227.907059,623.477417 228.965485,620.345886 230.432220,617.476135 
	C236.062744,606.459595 243.411896,596.540710 250.769272,586.670288 
	C257.123535,578.145630 257.322571,578.315796 248.573318,572.651794 
	C244.805023,570.212341 241.085297,567.697876 237.060760,564.994995 
z"/>
<path fill="#000000" opacity="1.000000" stroke="none" 
	d="
M352.274170,570.953979 
	C356.152466,572.494385 359.004089,571.516235 361.660492,568.894470 
	C372.918182,557.783569 384.292175,546.790405 395.550507,535.680115 
	C398.374603,532.893127 400.444672,529.620789 398.846344,525.390686 
	C397.101166,520.771973 392.929749,519.748535 388.734009,519.345032 
	C383.274567,518.820068 377.760834,519.633179 372.273651,518.831543 
	C358.590698,516.832458 352.336853,506.911377 356.553894,493.622223 
	C358.848969,486.389801 363.828217,480.933563 369.009979,475.753510 
	C382.669739,462.098175 396.346222,448.452362 410.311279,435.111816 
	C422.356476,423.605316 435.176575,412.969452 448.763641,403.296173 
	C449.840881,402.529236 451.020630,401.853333 452.241943,401.352783 
	C454.706024,400.342834 457.192535,400.274902 459.234894,402.257812 
	C461.277771,404.241119 461.252441,406.635620 460.295715,409.193726 
	C456.862793,418.372589 450.736664,425.941345 445.436462,433.989014 
	C442.787506,438.011169 439.667847,441.730530 436.665527,445.510986 
	C432.547455,450.696381 432.461700,450.750610 438.485229,454.061157 
	C446.848480,458.657593 454.940552,463.662384 461.368622,470.809387 
	C475.867920,486.930298 482.240997,505.635773 479.010620,527.373108 
	C475.917572,548.186401 464.772186,564.438171 449.952118,578.448608 
	C434.815125,592.758606 420.119019,607.502563 405.427368,622.257690 
	C391.683655,636.060852 375.477234,644.963745 355.792450,646.354736 
	C331.498596,648.071411 312.745392,638.234619 299.572388,617.951355 
	C290.294006,603.664917 290.521362,603.569824 302.589264,591.562805 
	C317.108032,577.117126 331.565552,562.609802 346.051514,548.131165 
	C346.640625,547.542358 347.229279,546.950378 347.853394,546.399841 
	C349.292267,545.130676 350.867706,543.987976 352.698395,545.554016 
	C354.702362,547.268311 353.791595,549.247070 352.631744,550.925110 
	C351.599060,552.419189 350.052765,553.559326 349.026398,555.056702 
	C344.652771,561.437439 345.562958,566.136658 352.274170,570.953979 
z"/>
</svg>